<svg version="1.1" xmlns="http://www.w3.org/2000/svg" xmlns:xlink="http://www.w3.org/1999/xlink" width="512px" height="512px" viewBox="0,0,256,256"><g fill="#ffffff" fill-rule="nonzero" stroke="none" stroke-width="1" stroke-linecap="butt" stroke-linejoin="miter" stroke-miterlimit="10" stroke-dasharray="" stroke-dashoffset="0" font-family="none" font-weight="none" font-size="none" text-anchor="none" style="mix-blend-mode: normal"><g transform="translate(2.22967,3.5) scale(0.5,0.5)"><g id="_1"><path d="M397.78,316h-205.13c-7.01039,0.01135 -13.0937,-4.83453 -14.65,-11.67l-34.54,-150.48c-1.02347,-4.45296 0.03844,-9.12961 2.88463,-12.7039c2.84619,-3.57429 7.1663,-5.65645 11.73537,-5.6561h274.27c4.57432,-0.00951 8.90298,2.06879 11.75603,5.64435c2.85305,3.57556 3.91863,8.25756 2.89397,12.71565l-34.6,150.48c-1.55382,6.82452 -7.62083,11.66734 -14.62,11.67zM204.59,286h181.25l27.67,-120.48h-236.6z"></path><path d="M222,450c-31.74533,0 -57.48,-25.73467 -57.48,-57.48c0,-31.74533 25.73467,-57.48 57.48,-57.48c31.74533,0 57.48,25.73467 57.48,57.48c-0.03307,31.73162 -25.74838,57.44693 -57.48,57.48zM222,365.05c-11.11553,0 -21.13637,6.69637 -25.38916,16.96617c-4.2528,10.2698 -1.89989,22.09022 5.96141,29.94866c7.8613,7.85844 19.68258,10.20704 29.95083,5.95051c10.26825,-4.25653 16.96097,-14.27981 16.95693,-25.39534c-0.01654,-15.16831 -12.31169,-27.45898 -27.48,-27.47z"></path><path d="M368.42,450c-31.74533,0 -57.48,-25.73467 -57.48,-57.48c0,-31.74533 25.73467,-57.48 57.48,-57.48c31.74533,0 57.48,25.73467 57.48,57.48c-0.03307,31.73162 -25.74838,57.44693 -57.48,57.48zM368.42,365.05c-11.11553,0 -21.13637,6.69637 -25.38916,16.96617c-4.2528,10.2698 -1.89989,22.09022 5.96141,29.94866c7.8613,7.85844 19.68258,10.20704 29.95083,5.95051c10.26825,-4.25653 16.96097,-14.27981 16.95693,-25.39534c-0.01654,-15.16831 -12.31169,-27.45898 -27.48,-27.47z"></path><path d="M158.08,165.49c-6.45727,-0.0006 -12.1895,-4.1336 -14.23,-10.26l-25.71,-77.23h-47.44c-8.28427,0 -15,-6.71573 -15,-15c0,-8.28427 6.71573,-15 15,-15h58.3c6.45727,0.0006 12.1895,4.1336 14.23,10.26l29.13,87.49c1.52336,4.57375 0.75564,9.60095 -2.0634,13.51155c-2.81904,3.91061 -7.34583,6.228 -12.1666,6.22845z"></path></g></g></g></svg>